<mxfile host="app.diagrams.net" modified="2021-04-19T07:08:37.963Z" agent="5.0 (Macintosh; Intel Mac OS X 10_14_6) AppleWebKit/537.36 (KHTML, like Gecko) Chrome/90.0.4430.72 Safari/537.36" etag="8hgyGkCZUTy0Tmydml06" version="14.6.1" type="github">
  <diagram id="90Cki1HJhox-0Vmg0B4F" name="Page-2">
    <mxGraphModel dx="946" dy="515" grid="1" gridSize="10" guides="1" tooltips="1" connect="1" arrows="1" fold="1" page="1" pageScale="1" pageWidth="1169" pageHeight="1654" background="none" math="0" shadow="0">
      <root>
        <mxCell id="hxEJxPMiuDx7DTWJ8m94-0" />
        <mxCell id="hxEJxPMiuDx7DTWJ8m94-1" parent="hxEJxPMiuDx7DTWJ8m94-0" />
        <mxCell id="hxEJxPMiuDx7DTWJ8m94-14" value="" style="shape=singleArrow;whiteSpace=wrap;html=1;arrowWidth=0.2;arrowSize=0.5;fillColor=#1ba1e2;strokeColor=#006EAF;fontColor=#ffffff;" vertex="1" parent="hxEJxPMiuDx7DTWJ8m94-1">
          <mxGeometry x="190" y="180" width="80" height="50" as="geometry" />
        </mxCell>
        <mxCell id="hxEJxPMiuDx7DTWJ8m94-15" value="" style="verticalLabelPosition=bottom;aspect=fixed;html=1;verticalAlign=top;strokeColor=none;align=center;outlineConnect=0;shape=mxgraph.citrix.cell_phone;direction=east;" vertex="1" parent="hxEJxPMiuDx7DTWJ8m94-1">
          <mxGeometry x="70" y="140" width="8.33" height="20" as="geometry" />
        </mxCell>
        <mxCell id="hxEJxPMiuDx7DTWJ8m94-16" value="" style="verticalLabelPosition=bottom;aspect=fixed;html=1;verticalAlign=top;strokeColor=none;align=center;outlineConnect=0;shape=mxgraph.citrix.cell_phone;direction=east;" vertex="1" parent="hxEJxPMiuDx7DTWJ8m94-1">
          <mxGeometry x="147.5" y="130" width="12.5" height="30" as="geometry" />
        </mxCell>
        <mxCell id="hxEJxPMiuDx7DTWJ8m94-17" value="" style="verticalLabelPosition=bottom;aspect=fixed;html=1;verticalAlign=top;strokeColor=none;align=center;outlineConnect=0;shape=mxgraph.citrix.cell_phone;direction=east;" vertex="1" parent="hxEJxPMiuDx7DTWJ8m94-1">
          <mxGeometry x="47.5" y="190" width="16.67" height="40" as="geometry" />
        </mxCell>
        <mxCell id="hxEJxPMiuDx7DTWJ8m94-18" value="" style="verticalLabelPosition=bottom;aspect=fixed;html=1;verticalAlign=top;strokeColor=none;align=center;outlineConnect=0;shape=mxgraph.citrix.cell_phone;direction=east;" vertex="1" parent="hxEJxPMiuDx7DTWJ8m94-1">
          <mxGeometry x="78.33" y="260" width="12.5" height="30" as="geometry" />
        </mxCell>
        <mxCell id="hxEJxPMiuDx7DTWJ8m94-19" value="" style="verticalLabelPosition=bottom;aspect=fixed;html=1;verticalAlign=top;strokeColor=none;align=center;outlineConnect=0;shape=mxgraph.citrix.cell_phone;direction=east;" vertex="1" parent="hxEJxPMiuDx7DTWJ8m94-1">
          <mxGeometry x="170" y="270" width="16.67" height="40" as="geometry" />
        </mxCell>
        <mxCell id="hxEJxPMiuDx7DTWJ8m94-37" value="" style="edgeStyle=orthogonalEdgeStyle;rounded=0;orthogonalLoop=1;jettySize=auto;html=1;fillColor=#1ba1e2;strokeColor=#006EAF;" edge="1" parent="hxEJxPMiuDx7DTWJ8m94-1" source="hxEJxPMiuDx7DTWJ8m94-28" target="hxEJxPMiuDx7DTWJ8m94-30">
          <mxGeometry relative="1" as="geometry" />
        </mxCell>
        <mxCell id="hxEJxPMiuDx7DTWJ8m94-28" value="" style="shape=curlyBracket;whiteSpace=wrap;html=1;rounded=1;size=0;strokeWidth=3;shadow=0;sketch=0;perimeterSpacing=0;gradientDirection=east;strokeColor=#66B2FF;" vertex="1" parent="hxEJxPMiuDx7DTWJ8m94-1">
          <mxGeometry x="410" y="110.51" width="30" height="209.49" as="geometry" />
        </mxCell>
        <mxCell id="hxEJxPMiuDx7DTWJ8m94-29" value="" style="aspect=fixed;perimeter=ellipsePerimeter;html=1;align=center;shadow=0;dashed=0;spacingTop=3;image;image=img/lib/active_directory/database_cube.svg;sketch=0;strokeColor=#66B2FF;strokeWidth=3;gradientColor=none;" vertex="1" parent="hxEJxPMiuDx7DTWJ8m94-1">
          <mxGeometry x="90" y="171.11" width="89" height="98.89" as="geometry" />
        </mxCell>
        <mxCell id="hxEJxPMiuDx7DTWJ8m94-30" value="" style="aspect=fixed;perimeter=ellipsePerimeter;html=1;align=center;shadow=0;dashed=0;spacingTop=3;image;image=img/lib/active_directory/databases.svg;sketch=0;strokeColor=#66B2FF;strokeWidth=3;gradientColor=none;" vertex="1" parent="hxEJxPMiuDx7DTWJ8m94-1">
          <mxGeometry x="280" y="171.10999999999999" width="90.61" height="88.8" as="geometry" />
        </mxCell>
        <mxCell id="hxEJxPMiuDx7DTWJ8m94-31" value="" style="aspect=fixed;perimeter=ellipsePerimeter;html=1;align=center;shadow=0;dashed=0;spacingTop=3;image;image=img/lib/active_directory/users.svg;sketch=0;strokeColor=#66B2FF;strokeWidth=3;gradientColor=none;" vertex="1" parent="hxEJxPMiuDx7DTWJ8m94-1">
          <mxGeometry x="179" y="110" width="39.6" height="60" as="geometry" />
        </mxCell>
        <mxCell id="hxEJxPMiuDx7DTWJ8m94-39" value="&lt;font style=&quot;font-size: 17px&quot;&gt;&lt;b&gt;&lt;i&gt;海量一手数据&lt;br&gt;持续更新&lt;/i&gt;&lt;/b&gt;&lt;/font&gt;" style="text;html=1;resizable=0;autosize=1;align=center;verticalAlign=middle;points=[];fillColor=none;strokeColor=none;rounded=0;shadow=0;sketch=0;" vertex="1" parent="hxEJxPMiuDx7DTWJ8m94-1">
          <mxGeometry x="66.67" y="320.51" width="120" height="40" as="geometry" />
        </mxCell>
        <mxCell id="b9mFOcGBmiT8-A-ekTCg-0" value="&lt;font style=&quot;font-size: 17px&quot;&gt;&lt;b&gt;&lt;i&gt;数据仓库&lt;/i&gt;&lt;/b&gt;&lt;/font&gt;" style="text;html=1;resizable=0;autosize=1;align=center;verticalAlign=middle;points=[];fillColor=none;strokeColor=none;rounded=0;shadow=0;sketch=0;" vertex="1" parent="hxEJxPMiuDx7DTWJ8m94-1">
          <mxGeometry x="280" y="280" width="80" height="20" as="geometry" />
        </mxCell>
        <mxCell id="b9mFOcGBmiT8-A-ekTCg-1" value="" style="aspect=fixed;perimeter=ellipsePerimeter;html=1;align=center;shadow=0;dashed=0;spacingTop=3;image;image=img/lib/active_directory/database_partition_2.svg;sketch=0;strokeColor=#66B2FF;strokeWidth=3;gradientColor=none;" vertex="1" parent="hxEJxPMiuDx7DTWJ8m94-1">
          <mxGeometry x="450" y="93" width="63.51" height="47" as="geometry" />
        </mxCell>
        <mxCell id="b9mFOcGBmiT8-A-ekTCg-2" value="&lt;font style=&quot;font-size: 17px&quot;&gt;&lt;b&gt;&lt;i&gt;样本数据&lt;/i&gt;&lt;/b&gt;&lt;/font&gt;" style="text;html=1;resizable=0;autosize=1;align=center;verticalAlign=middle;points=[];fillColor=none;strokeColor=none;rounded=0;shadow=0;sketch=0;" vertex="1" parent="hxEJxPMiuDx7DTWJ8m94-1">
          <mxGeometry x="440" y="140" width="80" height="20" as="geometry" />
        </mxCell>
        <mxCell id="b9mFOcGBmiT8-A-ekTCg-3" value="" style="shape=singleArrow;whiteSpace=wrap;html=1;arrowWidth=0.2;arrowSize=0.5;fillColor=#1ba1e2;strokeColor=#006EAF;fontColor=#ffffff;" vertex="1" parent="hxEJxPMiuDx7DTWJ8m94-1">
          <mxGeometry x="530" y="90" width="50" height="50" as="geometry" />
        </mxCell>
      </root>
    </mxGraphModel>
  </diagram>
</mxfile>
